<?xml version="1.0" encoding="utf-8"?>
<!DOCTYPE svg PUBLIC "-//W3C//DTD SVG 1.1//EN" "http://www.w3.org/Graphics/SVG/1.1/DTD/svg11.dtd">
<svg version="1.1"
	 id="Layer_1" sodipodi:docname="onekeeper_app_logo.svg" inkscape:version="0.91 r" xmlns:sodipodi="http://sodipodi.sourceforge.net/DTD/sodipodi-0.dtd" xmlns:svg="http://www.w3.org/2000/svg" xmlns:cc="http://creativecommons.org/ns#" xmlns:rdf="http://www.w3.org/1999/02/22-rdf-syntax-ns#" xmlns:inkscape="http://www.inkscape.org/namespaces/inkscape" xmlns:dc="http://purl.org/dc/elements/1.1/"
	 xmlns="http://www.w3.org/2000/svg" xmlns:xlink="http://www.w3.org/1999/xlink" x="0px" y="0px" width="100px" height="100px"
	 viewBox="0 0 100 100" enable-background="new 0 0 100 100" xml:space="preserve">
<sodipodi:namedview  inkscape:window-width="1615" inkscape:window-y="24" inkscape:window-height="1026" inkscape:pageshadow="2" inkscape:window-x="65" inkscape:pageopacity="0" inkscape:window-maximized="1" inkscape:cx="50.424685" inkscape:zoom="4.285" showgrid="false" guidetolerance="10" objecttolerance="10" pagecolor="#ffffff" id="namedview9" borderopacity="1" bordercolor="#666666" inkscape:cy="23.581186" gridtolerance="10" inkscape:current-layer="g5194">
	</sodipodi:namedview>
<sodipodi:namedview  inkscape:window-width="1615" inkscape:window-y="24" inkscape:window-height="1026" inkscape:pageshadow="2" inkscape:window-x="65" inkscape:pageopacity="0" inkscape:window-maximized="1" inkscape:cx="50.424685" inkscape:zoom="4.285" showgrid="false" guidetolerance="10" objecttolerance="10" pagecolor="#ffffff" id="namedview9" borderopacity="1" bordercolor="#666666" inkscape:cy="23.581186" gridtolerance="10" inkscape:current-layer="g5194">
	</sodipodi:namedview>
<rect id="rect5196_1_" fill="#0A466A" width="100" height="100"/>
<g>
	<path fill="#FFFFFF" d="M18.628,49.513c0-5.72,0.909-10.696,2.73-14.928c1.82-4.231,4.191-7.747,7.116-10.548
		c2.923-2.8,6.161-4.886,9.711-6.257c3.549-1.371,7.085-2.056,10.607-2.056c4.832,0,9.129,0.895,12.889,2.683
		c3.76,1.787,6.922,4.216,9.488,7.285c2.564,3.068,4.504,6.66,5.818,10.771c1.311,4.112,1.969,8.463,1.969,13.05
		c0,5.186-0.807,9.849-2.418,13.989c-1.611,4.143-3.803,7.688-6.578,10.638c-2.775,2.95-5.982,5.214-9.623,6.793
		c-3.639,1.579-7.488,2.369-11.545,2.369c-4.178,0-8.101-0.774-11.771-2.324s-6.863-3.77-9.578-6.658
		c-2.716-2.89-4.864-6.421-6.444-10.593C19.418,59.555,18.628,54.816,18.628,49.513z M27.758,49.468
		c0,4.059,0.521,7.758,1.566,11.099c1.043,3.343,2.506,6.222,4.386,8.638c1.88,2.417,4.102,4.297,6.668,5.64
		c2.565,1.342,5.371,2.014,8.414,2.014c3.162,0,6.041-0.716,8.637-2.148c2.596-1.432,4.803-3.37,6.623-5.818
		c1.82-2.445,3.236-5.339,4.252-8.682c1.014-3.342,1.521-6.922,1.521-10.741c0-4.176-0.553-7.951-1.656-11.323
		c-1.104-3.371-2.609-6.25-4.52-8.638c-1.91-2.386-4.148-4.207-6.713-5.46c-2.566-1.253-5.281-1.879-8.145-1.879
		c-2.864,0-5.581,0.626-8.146,1.879c-2.566,1.253-4.804,3.074-6.713,5.46c-1.911,2.388-3.417,5.267-4.521,8.638
		C28.31,41.517,27.758,45.292,27.758,49.468z"/>
</g>
</svg>
